<?xml version="1.0" encoding="utf-8"?>
<!-- Generator: Adobe Illustrator 18.0.0, SVG Export Plug-In . SVG Version: 6.00 Build 0)  -->
<!DOCTYPE svg PUBLIC "-//W3C//DTD SVG 1.1//EN" "http://www.w3.org/Graphics/SVG/1.1/DTD/svg11.dtd">
<svg version="1.1" id="Layer_1" xmlns="http://www.w3.org/2000/svg" xmlns:xlink="http://www.w3.org/1999/xlink" x="0px" y="0px"
	 viewBox="0 0 800 518" enable-background="new 0 0 800 518" xml:space="preserve">
<g>
	<path d="M234.4,81.6C234,75,229.5,72,224.1,72c-5.5,0-9.9,3-10.3,9.6c-1.2,0.4-2.1,1.9-2.1,3.6c0,2.1,1.3,3.7,2.8,3.7
		c0.1,0,0.2,0,0.3,0c1.7,5.1,5.2,9.5,9.3,9.5c4.1,0,7.7-4.4,9.3-9.5c0.1,0,0.2,0,0.3,0c1.6,0,2.8-1.7,2.8-3.7
		C236.5,83.5,235.6,82,234.4,81.6z"/>
	<path d="M234.6,98.6h-4.2l-3.3,11l-2.6-5.8l2.7-3.4l-0.3-0.3c-1,0.2-2.1,0.2-3.2,0.2c-1.1,0-2.1-0.1-3.1-0.2l-0.1,0.1l2.9,3.7
		l-2.5,5.9l-3.3-11.2h-4.2c-5.5,0-10,4.5-10,10V120h41.1v-11.4C244.6,103.1,240.1,98.6,234.6,98.6z"/>
</g>
<g>
	<path d="M518.7,77.7h-1.1v35.4h-25.1V77.7h-1.1c-1.6,0-2.9,1.3-2.9,2.9v36.6c0,1.6,1.3,2.9,2.9,2.9h27.4c1.6,0,2.9-1.3,2.9-2.9
		V80.6C521.6,79,520.3,77.7,518.7,77.7z"/>
	<path d="M509.5,77c0-0.2,0-0.3,0-0.5c0-2.5-2-4.5-4.5-4.5c-2.5,0-4.5,2-4.5,4.5c0,0.2,0,0.3,0,0.5h-2.9v3.1c0,1.1,0.9,1.9,1.9,1.9
		h10.8c1.1,0,1.9-0.9,1.9-1.9V77H509.5z M505,73.6c0.9,0,1.7,0.7,1.7,1.7c0,0.9-0.7,1.7-1.7,1.7c-0.9,0-1.7-0.7-1.7-1.7
		C503.3,74.4,504.1,73.6,505,73.6z"/>
	<rect x="495" y="86.4" width="20" height="1.4"/>
	<rect x="495" y="90.2" width="20" height="1.4"/>
	<rect x="495" y="94" width="12.5" height="1.4"/>
</g>
<g>
	<g>
		<path d="M159,398.1c-0.2-3.2-2.4-4.6-5-4.6c-2.6,0-4.8,1.5-5,4.6c-0.6,0.2-1,0.9-1,1.7c0,1,0.6,1.8,1.4,1.8c0,0,0.1,0,0.1,0
			c0.8,2.5,2.5,4.6,4.5,4.6c2,0,3.7-2.1,4.5-4.6c0,0,0.1,0,0.1,0c0.7,0,1.4-0.8,1.4-1.8C160,399,159.6,398.3,159,398.1z"/>
		<path d="M159.1,406.3h-2l-1.6,5.3l-1.2-2.8l1.3-1.6l-0.1-0.1c-0.5,0.1-1,0.1-1.5,0.1c-0.5,0-1,0-1.5-0.1l-0.1,0.1l1.4,1.8
			l-1.2,2.8l-1.6-5.4h-2c-2.7,0-4.8,2.2-4.8,4.8v5.5H164v-5.5C164,408.4,161.8,406.3,159.1,406.3z"/>
	</g>
	<g>
		<path d="M142.3,420.7c-0.2-2.6-1.9-3.8-4.1-3.8c-2.2,0-4,1.2-4.1,3.8c-0.5,0.2-0.8,0.7-0.8,1.4c0,0.8,0.5,1.5,1.1,1.5
			c0,0,0.1,0,0.1,0c0.7,2.1,2.1,3.8,3.7,3.8c1.6,0,3.1-1.7,3.7-3.8c0,0,0.1,0,0.1,0c0.6,0,1.1-0.7,1.1-1.5
			C143.1,421.4,142.8,420.9,142.3,420.7z"/>
		<path d="M142.4,427.5h-1.7l-1.3,4.4l-1-2.3l1.1-1.4l-0.1-0.1c-0.4,0.1-0.8,0.1-1.3,0.1c-0.4,0-0.8,0-1.3-0.1l0,0l1.2,1.5l-1,2.3
			l-1.3-4.5H134c-2.2,0-4,1.8-4,4v4.5h16.4v-4.5C146.4,429.3,144.6,427.5,142.4,427.5z"/>
	</g>
	<g>
		<path d="M173.9,420.7c-0.2-2.6-1.9-3.8-4.1-3.8c-2.2,0-4,1.2-4.1,3.8c-0.5,0.2-0.8,0.7-0.8,1.4c0,0.8,0.5,1.5,1.1,1.5
			c0,0,0.1,0,0.1,0c0.7,2.1,2.1,3.8,3.7,3.8c1.6,0,3.1-1.7,3.7-3.8c0,0,0.1,0,0.1,0c0.6,0,1.1-0.7,1.1-1.5
			C174.8,421.4,174.4,420.9,173.9,420.7z"/>
		<path d="M174,427.5h-1.7l-1.3,4.4l-1-2.3l1.1-1.4l-0.1-0.1c-0.4,0.1-0.8,0.1-1.3,0.1c-0.4,0-0.8,0-1.3-0.1l0,0l1.2,1.5l-1,2.3
			l-1.3-4.5h-1.7c-2.2,0-4,1.8-4,4v4.5H178v-4.5C178,429.3,176.2,427.5,174,427.5z"/>
	</g>
	<rect x="152.7" y="417.7" width="2.8" height="10.7"/>
	<rect x="147.9" y="428.2" width="12.4" height="2.8"/>
</g>
<g>
	<rect x="222.1" y="417.8" width="2.8" height="10.7"/>
	<rect x="217.3" y="428.2" width="12.4" height="2.8"/>
	<path d="M214.9,436v-1.4c0-0.1,0-0.1,0-0.2v-3.3c0-2-0.8-3.7-2.7-3.8c0.2-2.6,0.3-6.1-0.4-8.2c-0.7-2.1-2.9-2.6-3.7-2.7
		c-0.1,0-0.2,0-0.3,0.1c-0.1-0.1-0.2-0.1-0.3-0.1c-0.9,0.1-3,0.6-3.7,2.7c-0.7,2-0.6,5.6-0.4,8.2c-1.9,0.2-2.7,1.8-2.7,3.8v3.2
		c0,0.1,0,0.2,0,0.3v1.4H214.9z M209.3,432l-2.8,0l-0.7-4.1c0.1-0.4,0.3-1,0.2-1.7c0.6,0.6,1.2,1,1.7,1c0.5,0,1.1-0.3,1.7-0.9
		c-0.1,0.9,0.2,1.7,0.4,2L209.3,432z M205.7,422.8c0.6-0.4,1.9-3.4,1.9-3.4c1.7,0.3,2.8,3.2,2.7,4.1c-0.1,0.9-1.4,3.1-2.8,3.1
		s-2.6-3.1-2.6-3.1S205.1,423.1,205.7,422.8z"/>
	<path d="M246.2,436v-1.4c0-0.1,0-0.1,0-0.2v-3.3c0-2-0.8-3.7-2.7-3.8c0.2-2.6,0.3-6.1-0.4-8.2c-0.7-2.1-2.9-2.6-3.7-2.7
		c-0.1,0-0.2,0-0.3,0.1c-0.1-0.1-0.2-0.1-0.3-0.1c-0.9,0.1-3,0.6-3.7,2.7c-0.7,2-0.6,5.6-0.4,8.2c-1.9,0.2-2.7,1.8-2.7,3.8v3.2
		c0,0.1,0,0.2,0,0.3v1.4H246.2z M240.7,432l-2.8,0l-0.7-4.1c0.1-0.4,0.3-1,0.2-1.7c0.6,0.6,1.2,1,1.7,1c0.5,0,1.1-0.3,1.7-0.9
		c-0.1,0.9,0.2,1.7,0.4,2L240.7,432z M237.1,422.8c0.6-0.4,1.9-3.4,1.9-3.4c1.7,0.3,2.8,3.2,2.7,4.1c-0.1,0.9-1.4,3.1-2.8,3.1
		s-2.6-3.1-2.6-3.1S236.5,423.1,237.1,422.8z"/>
	<path d="M231.6,416.2v-1.7c0-0.1,0-0.1,0-0.2v-3.8c0-2.3-1-4.2-3.2-4.4c0.2-3,0.4-7.1-0.4-9.4c-0.8-2.4-3.3-3-4.3-3.1
		c-0.1,0-0.2,0-0.3,0.1c-0.1-0.1-0.2-0.1-0.3-0.1c-1,0.1-3.5,0.7-4.3,3.1c-0.8,2.4-0.7,6.5-0.4,9.4c-2.2,0.2-3.1,2.1-3.1,4.4v3.7
		c0,0.1,0,0.2,0,0.3v1.7H231.6z M225.2,411.5l-3.2,0l-0.9-4.7c0.2-0.5,0.3-1.2,0.2-1.9c0.6,0.7,1.4,1.1,2,1.1c0.6,0,1.3-0.4,2-1
		c-0.1,1.1,0.3,2,0.4,2.3L225.2,411.5z M221.1,400.9c0.7-0.4,2.2-3.9,2.2-3.9c2,0.3,3.2,3.7,3.1,4.7s-1.6,3.6-3.2,3.6
		c-1.6,0-3-3.5-3-3.5S220.4,401.3,221.1,400.9z"/>
</g>
<path d="M176.2,185.1c1.2-2.8,1.8-5.9,1.8-9.1c0-13.3-10.7-24-24-24c-13.3,0-24,10.7-24,24c0,13.3,10.7,24,24,24
	c9.8,0,18.2-5.9,22-14.3h0.2V185.1z M154,196.4c-3.2,0-6.6-4.2-8.4-10.7h16.8C160.6,192.2,157.2,196.4,154,196.4z M144.8,182.1
	c-0.3-1.9-0.5-3.9-0.5-6.1c0-1.9,0.1-3.7,0.4-5.4h18.6c0.2,1.7,0.4,3.5,0.4,5.4c0,2.1-0.2,4.2-0.5,6.1H144.8z M154,155.6
	c3.3,0,6.9,4.5,8.6,11.5h-17.2C147.1,160.1,150.7,155.6,154,155.6z M166.9,170.6h6.8c0.5,1.7,0.7,3.5,0.7,5.4c0,2.1-0.3,4.2-0.9,6.1
	h-6.7c0.3-1.9,0.4-4,0.4-6.1C167.3,174.1,167.1,172.4,166.9,170.6z M172.3,167h-6c-0.8-3.8-2.2-7.1-3.9-9.7
	C166.7,159.3,170.3,162.8,172.3,167z M145.6,157.4c-1.7,2.5-3.1,5.9-3.9,9.7h-6C137.7,162.8,141.3,159.3,145.6,157.4z M134.3,170.6
	h6.8c-0.2,1.7-0.3,3.5-0.3,5.4c0,2.1,0.2,4.1,0.4,6.1h-6.7c-0.6-1.9-0.9-4-0.9-6.1C133.6,174.1,133.8,172.3,134.3,170.6z M136,185.7
	h5.8c0.9,3.5,2.2,6.6,3.8,8.9C141.5,192.8,138.2,189.6,136,185.7z M162.4,194.6c1.6-2.4,2.9-5.4,3.8-8.9h5.8
	C169.8,189.6,166.5,192.8,162.4,194.6z"/>
<path d="M620,240.9V272h48v-31.1H620z M650.7,261.2l11.8,8.1h-36.9l11.8-8.1l-14.8,7v-23.4L644,258l21.4-13.4v23.5L650.7,261.2z
	 M625.7,243.5h36.5L644,254.9L625.7,243.5z"/>
<path d="M654.1,312h-23c-1.4,0-2.6,1.2-2.6,2.6v42.8c0,1.4,1.2,2.6,2.6,2.6h23c1.4,0,2.6-1.2,2.6-2.6v-42.8
	C656.7,313.2,655.5,312,654.1,312z M640.3,314.5h4.5c0.3,0,0.5,0.2,0.5,0.5s-0.2,0.5-0.5,0.5h-4.5c-0.3,0-0.5-0.2-0.5-0.5
	S640,314.5,640.3,314.5z M642.6,358.1c-0.8,0-1.5-0.7-1.5-1.5c0-0.8,0.7-1.5,1.5-1.5c0.8,0,1.5,0.7,1.5,1.5
	C644.1,357.4,643.4,358.1,642.6,358.1z M653.8,352.2c0,0.7-0.6,1.3-1.3,1.3h-19.9c-0.7,0-1.3-0.6-1.3-1.3v-33.7
	c0-0.7,0.6-1.3,1.3-1.3h19.9c0.7,0,1.3,0.6,1.3,1.3V352.2z"/>
<g>
	<path d="M410,391.9v33.4c0,2.2,1.6,4,3.6,4h40.8c2,0,3.6-1.8,3.6-4v-33.4H410z M454.5,421.8c0,1.9-1.4,3.4-3.1,3.4h-34.8
		c-1.7,0-3.1-1.5-3.1-3.4v-22.2h40.9V421.8z"/>
	<path d="M444.6,437.2l-9.6-9.6c-0.3-0.3-0.6-0.4-0.9-0.4c0,0,0,0-0.1,0c0,0,0,0-0.1,0c-0.3,0-0.7,0.1-0.9,0.4l-9.6,9.6
		c-0.5,0.5-0.5,1.3,0,1.7c0.5,0.5,1.3,0.5,1.7,0l7.6-7.6v7.4c0,0.7,0.6,1.2,1.2,1.2c0.7,0,1.2-0.6,1.2-1.2v-7.4l7.6,7.6
		c0.5,0.5,1.3,0.5,1.7,0C445.1,438.5,445.1,437.7,444.6,437.2z"/>
	<path d="M425.1,412.3l8.2-1.1c-0.2-1.4-0.8-2.8-1.8-4c-2.9-3.4-7.9-3.9-11.4-1c-3.4,2.9-3.9,7.9-1,11.4c2.8,3.4,7.8,3.8,11.2,1.1
		L425.1,412.3z"/>
	<rect x="436.7" y="407.8" width="14.1" height="1.5"/>
	<rect x="436.7" y="411.8" width="14.1" height="1.5"/>
	<rect x="436.7" y="415.8" width="9" height="1.5"/>
</g>
<g>
	<path d="M584.6,277.7c-4.3,1.8-7.7,2.3-12.8,2.3c-11.4,0-21.8-8.2-21.8-21.8c0-14,10.5-26.2,26.1-26.2c12.2,0,21.2,8.3,21.2,20
		c0,9.9-5.6,16.4-13.4,16.4c-3.4,0-5.7-1.7-6.3-5h-0.1c-2,3.2-5,5-8.5,5c-4.6,0-7.9-3.4-7.9-9.2c0-8.3,6-15.9,16-15.9
		c3.1,0,6.9,0.8,8.6,1.8l-1.9,12.9c-0.5,3.4-0.1,5.1,1.7,5.2c2.7,0.1,6.3-3.2,6.3-11.2c0-8.6-5.7-15.4-16.3-15.4
		c-10.2,0-19.4,7.9-19.4,20.8c0,11.6,7.3,17.8,17.6,17.8c3.3,0,7.1-0.7,9.9-2L584.6,277.7z M577.4,249.8c-0.6-0.1-1-0.2-1.6-0.2
		c-3.9,0-6.8,3.9-6.8,8.6c0,2.4,1,3.8,2.9,3.8c1.9,0,4.1-2.4,4.7-6.3L577.4,249.8z"/>
</g>
<path d="M456.5,339c0-2.3-1.7-4.3-4-4.6c0.2-1,0.2-2,0.2-3c0-10.7-8.6-19.3-19.3-19.3c-10.7,0-19.3,8.6-19.3,19.3
	c0,0.9,0.1,1.7,0.2,2.6c-2.4,0.2-4.4,2.2-4.4,4.7c0,2.6,2.1,4.7,4.7,4.7c0.3,0,0.5,0,0.7-0.1v2c0,1.1,0.9,2.1,2.1,2.1h3.3
	c1.1,0,2.1-0.9,2.1-2.1v-12.8c0-1.1-0.9-2.1-2.1-2.1h-3.3c-0.4,0-0.7,0.1-1,0.3c1.5-8,8.5-14.1,17-14.1c8.7,0,15.8,6.3,17.1,14.6
	c-0.4-0.5-1-0.8-1.6-0.8h-3.3c-1.1,0-2.1,0.9-2.1,2.1v12.8c0,1.1,0.9,2.1,2.1,2.1h3.3c0.3,0,0.6-0.1,0.8-0.2c-2,4.2-5.3,7.3-9.3,8.5
	c-0.5-1.6-2.1-2.7-4.1-2.7c-2.3,0-4.2,1.6-4.2,3.6c0,2,1.9,3.6,4.2,3.6c1.8,0,3.3-0.9,3.9-2.3c6.1-1.2,11-6.8,12.3-14.1
	C454.9,343.2,456.5,341.3,456.5,339z M451.1,343.6C451.1,343.6,451.1,343.6,451.1,343.6c0,0.1,0,0.1,0,0.2V343.6z"/>
<g>
	<path d="M506.8,261.9C506.8,261.9,506.8,261.9,506.8,261.9l-13.5,0c-0.3-1.7-0.4-3.5-0.4-5.5c0-1.7,0.1-3.3,0.3-4.8h7.8v-3.2h-7.2
		c1.5-5.9,4.4-9.8,7.2-10.3c0.1-1.2,0.7-2.4,1.4-3.2c-0.3,0-0.6,0-0.9,0c-11.9,0-21.6,9.7-21.6,21.6c0,11.9,9.7,21.6,21.6,21.6
		c8.8,0,16.4-5.3,19.7-12.9h0.2v-0.5c0.4-0.9,0.7-1.8,0.9-2.7H506.8z M494,239.7c-1.6,2.3-2.8,5.3-3.5,8.7h-5.4
		C487,244.6,490.1,241.5,494,239.7z M483.2,256.4c0-1.7,0.2-3.3,0.6-4.8h6.1c-0.2,1.6-0.3,3.2-0.3,4.8c0,1.9,0.1,3.7,0.4,5.5h-6
		C483.5,260.2,483.2,258.3,483.2,256.4z M485.4,265.1h5.3c0.8,3.1,1.9,5.9,3.4,8C490.4,271.5,487.3,268.7,485.4,265.1z M501.6,274.8
		c-2.9,0-5.9-3.8-7.6-9.7h15.1C507.5,271,504.4,274.8,501.6,274.8z M509.1,273.2c1.5-2.1,2.6-4.9,3.4-8h5.3
		C515.8,268.7,512.7,271.5,509.1,273.2z"/>
	<g>
		<path d="M524.8,235.1h-17.4c-1.8,0-3.2,1.4-3.2,3.2v17.4c0,1.8,1.4,3.2,3.2,3.2h17.4c1.8,0,3.2-1.4,3.2-3.2v-17.4
			C528,236.5,526.6,235.1,524.8,235.1z M512.5,241.9c0.1-2.4,1.8-3.5,3.7-3.5c2,0,3.6,1.1,3.7,3.5c0.4,0.2,0.8,0.7,0.8,1.3
			c0,0.7-0.5,1.3-1,1.3c0,0-0.1,0-0.1,0c-0.6,1.9-1.9,3.4-3.4,3.4c-1.5,0-2.8-1.6-3.4-3.4c0,0-0.1,0-0.1,0c-0.6,0-1-0.6-1-1.3
			C511.7,242.6,512.1,242.1,512.5,241.9z M523.6,255.7h-14.8v-4.1c0-2,1.6-3.6,3.6-3.6h1.5l1.2,4l0.9-2.1l-1.1-1.3l0,0
			c0.4,0.1,0.7,0.1,1.1,0.1c0.4,0,0.8,0,1.1-0.1l0.1,0.1l-1,1.2l0.9,2.1l1.2-4h1.5c2,0,3.6,1.6,3.6,3.6V255.7z"/>
	</g>
</g>
<g>
	<g>
		<path d="M558.4,79.5c0,0,0.1,0,0.1,0c0.7,2.3,2.3,4.2,4.2,4.2c1.8,0,3.4-1.9,4.2-4.2c0,0,0.1,0,0.1,0c0.7,0,1.3-0.7,1.3-1.7
			c0-0.8-0.4-1.4-0.9-1.6c-0.2-2.9-2.2-4.3-4.6-4.3c-2.4,0-4.4,1.4-4.6,4.3c-0.5,0.2-0.9,0.8-0.9,1.6
			C557.2,78.8,557.7,79.5,558.4,79.5z"/>
		<path d="M571.8,92.1v-3.8c0-2.5-2-4.5-4.5-4.5h-1.9l-1.5,4.9l-1.1-2.6l1.2-1.5l-0.1-0.1c-0.5,0.1-0.9,0.1-1.4,0.1
			c-0.5,0-0.9,0-1.4-0.1l0,0.1l1.3,1.7l-1.1,2.6l-1.5-5H558c-2.5,0-4.5,2-4.5,4.5V92c0,0.1,0,0.2,0,0.3v10.2c0,0.8,0.7,1.5,1.5,1.5
			h1.4v15.9H569V104h1.4c0.8,0,1.5-0.7,1.5-1.5V92.3C571.9,92.2,571.9,92.2,571.8,92.1z"/>
	</g>
	<polygon points="588.3,87.4 588.3,84.8 578.3,84.8 578.3,100.4 573.1,100.4 573.1,103 578.3,103 578.3,118.6 588.3,118.6 
		588.3,116.1 580.9,116.1 580.9,103 588.3,103 588.3,100.4 580.9,100.4 580.9,87.4 	"/>
	<circle cx="592.4" cy="117.6" r="2.4"/>
	<circle cx="592.4" cy="101.7" r="2.4"/>
	<polygon points="600.5,81.3 599,79.5 592.7,84.7 590.8,82.3 589,83.8 592.3,87.9 592.4,87.8 592.4,87.8 	"/>
</g>
<g>
	<polygon points="657.8,87.2 657.8,84.6 647.8,84.6 647.8,100.3 642.5,100.3 642.5,102.8 647.8,102.8 647.8,118.4 657.8,118.4 
		657.8,115.9 650.3,115.9 650.3,102.8 657.8,102.8 657.8,100.3 650.3,100.3 650.3,87.2 	"/>
	<circle cx="661.8" cy="117.4" r="2.4"/>
	<circle cx="661.8" cy="101.5" r="2.4"/>
	<polygon points="669.9,81.1 668.4,79.3 662.1,84.5 660.2,82.1 658.4,83.6 661.8,87.7 661.8,87.6 661.9,87.7 	"/>
	<path d="M640.4,92.2v-3.8c0-2.3-0.9-4.2-3.1-4.4c0.2-2.9,0.4-7-0.4-9.3c-0.8-2.4-3.3-2.9-4.3-3.1c-0.1,0-0.2,0-0.3,0.1
		c-0.1-0.1-0.2-0.1-0.3-0.1c-1,0.1-3.5,0.7-4.3,3.1c-0.8,2.3-0.7,6.4-0.4,9.3c-2.1,0.2-3.1,2.1-3.1,4.4v3.7c0,0.1,0,0.2,0,0.3v8.2
		c0,0.8,0.7,1.5,1.5,1.5h1.4v17.6h10.6v-17.6h1.4c0.8,0,1.5-0.7,1.5-1.5v-8.2C640.4,92.3,640.4,92.3,640.4,92.2z M634.1,89.4l-3.2,0
		l-0.9-4.7c0.2-0.5,0.3-1.1,0.2-1.9c0.6,0.7,1.3,1.1,2,1.1c0.6,0,1.3-0.4,1.9-1c-0.1,1.1,0.3,1.9,0.4,2.2L634.1,89.4z M632.1,83.3
		c-1.5,0-3-3.5-3-3.5s0.2-0.4,0.8-0.9c0.7-0.4,2.2-3.9,2.2-3.9c2,0.3,3.2,3.7,3.1,4.7C635.2,80.7,633.7,83.3,632.1,83.3z"/>
</g>
<g>
	<path d="M372.6,352L372.6,352l-0.2,0l-5.7-7l3-2.5l3.3,4l7.3-6c-1.7-2.1-4.4-3.5-7.3-3.5c-5.2,0-9.5,4.2-9.5,9.5
		c0,5.2,4.2,9.5,9.5,9.5c5.2,0,9.5-4.2,9.5-9.5c0-0.8-0.1-1.6-0.3-2.4L372.6,352z"/>
	<path d="M377.9,327c-1.1,0-2.2,0.2-3.2,0.5c0-0.2,0-0.3,0-0.5c0-5.6-4.5-10.1-10.1-10.1c-5.6,0-10.1,4.5-10.1,10.1
		c0,0.4,0,0.8,0.1,1.2c-1.4-0.7-3-1.2-4.7-1.2c-5.6,0-10.1,4.5-10.1,10.1c0,5.6,4.5,10.1,10.1,10.1c0.2,0,5.2,0,11,0
		c0-0.3,0-0.6,0-1c0-6.5,5.3-11.8,11.8-11.8c6,0,11,4.5,11.7,10.3c2.1-1.8,3.5-4.6,3.5-7.6C388,331.5,383.5,327,377.9,327z"/>
</g>
<g>
	<path d="M315,338.8h-3.7v8.2h3.7c0.9,0,1.7-0.8,1.7-1.7v-4.9C316.7,339.6,315.9,338.8,315,338.8z"/>
	<path d="M315,327.9h-3.7v8.2h3.7c0.9,0,1.7-0.8,1.7-1.7v-4.9C316.7,328.6,315.9,327.9,315,327.9z"/>
	<path d="M315,316.9h-3.7v8.2h3.7c0.9,0,1.7-0.8,1.7-1.7v-4.9C316.7,317.7,315.9,316.9,315,316.9z"/>
	<path d="M311.2,350v5.8c0,0.8-0.6,1.4-1.4,1.4h-32.6c-0.8,0-1.4-0.6-1.4-1.4v-0.6h30.3c1.5,0,2.8-1.3,2.8-2.8v-37.6
		c0-1.6-1.3-2.8-2.8-2.8h-30.3c-1.5,0-2.8,1.3-2.8,2.8v37.6c0,0,0,0,0,0v3.4c0,2.3,1.9,4.2,4.2,4.2h32.6c2.3,0,4.2-1.9,4.2-4.2V350
		H311.2z M286.6,325.5c0.2-3.1,2.3-4.5,4.8-4.5c2.6,0,4.6,1.4,4.8,4.5c0.6,0.2,1,0.9,1,1.7c0,1-0.6,1.7-1.3,1.7c0,0-0.1,0-0.1,0
		c-0.8,2.4-2.4,4.4-4.4,4.4c-1.9,0-3.6-2-4.4-4.4c0,0-0.1,0-0.1,0c-0.7,0-1.3-0.8-1.3-1.7C285.6,326.4,286,325.7,286.6,325.5z
		 M281.8,338.1c0-2.6,2.1-4.7,4.7-4.7h1.9l1.6,5.2l1.2-2.7l-1.4-1.7l0.1-0.1c0.5,0.1,1,0.1,1.5,0.1c0.5,0,1,0,1.5-0.1l0.1,0.1
		l-1.3,1.6l1.2,2.7l1.5-5.1h1.9c2.6,0,4.7,2.1,4.7,4.7v5.3h-19.2V338.1z"/>
</g>
<g>
	<path d="M239.5,171.4l-3.6-1.6l-2.7,2.7c1.1,2,1.8,4.4,1.8,6.9c0,7.9-6.4,14.3-14.3,14.3c-7.9,0-14.3-6.4-14.3-14.3
		c0-7.9,6.4-14.3,14.3-14.3c2.7,0,5.1,0.7,7.3,2l2.5-2.5l-1.6-3.7l-0.3-0.7c-2.5-1-5.1-1.6-8-1.6c-11.4,0-20.7,9.3-20.7,20.7
		c0,11.4,9.3,20.7,20.7,20.7c11.4,0,20.7-9.3,20.7-20.7c0-2.7-0.5-5.3-1.5-7.7L239.5,171.4z"/>
	<path d="M244.1,156.3c-0.6-0.6-1.7-0.6-2.3,0l-1.1,1.1l-2.1-5l-7.6,7.6l2.1,5l-12.7,12.7c-0.6,0.6-0.6,1.7,0,2.3
		c0.6,0.6,1.7,0.6,2.3,0l12.8-12.8l5,2.2l7.6-7.6l-5-2.2l1-1C244.7,157.9,244.7,156.9,244.1,156.3z"/>
	<path d="M224.1,181.5c-1.5,1.5-3.9,1.5-5.3,0c-1.5-1.5-1.5-3.9,0-5.3l6.2-6.2c-1.3-0.6-2.7-0.9-4.3-0.9c-5.6,0-10.2,4.6-10.2,10.2
		c0,5.6,4.6,10.2,10.2,10.2c5.6,0,10.2-4.6,10.2-10.2c0-1.4-0.3-2.6-0.7-3.8L224.1,181.5z"/>
</g>
<g>
	<path d="M157.5,237c0-0.2,0-0.3,0-0.5c0-2.5-2-4.5-4.5-4.5s-4.5,2-4.5,4.5c0,0.2,0,0.3,0,0.5h-2.9v3.1c0,1.1,0.9,1.9,1.9,1.9h10.8
		c1.1,0,1.9-0.9,1.9-1.9V237H157.5z M153.1,233.6c0.9,0,1.7,0.7,1.7,1.7c0,0.9-0.7,1.7-1.7,1.7c-0.9,0-1.7-0.7-1.7-1.7
		C151.4,234.4,152.2,233.6,153.1,233.6z"/>
	<g>
		<path d="M169.6,240.1c-0.2-1.3-1.4-2.4-2.8-2.4h-1.1v6.3L169.6,240.1z"/>
		<path d="M165.6,261.2v11.9h-25.1v-35.4h-1.1c-1.6,0-2.9,1.3-2.9,2.9v36.6c0,1.6,1.3,2.9,2.9,2.9h27.4c1.6,0,2.9-1.3,2.9-2.9v-19.9
			L165.6,261.2z"/>
	</g>
	<g>
		<path d="M155.4,258.3c0.9,0.5,1.7,1.1,2.5,1.9c0.8,0.8,1.4,1.7,1.9,2.5c0,0,18.5-18.3,19.7-19.5c-1.2-3.2-4.4-4.4-4.4-4.4
			L155.4,258.3z"/>
		<path d="M155.1,264.7c0.3,0.3,0.2,0.7-0.2,0.8l-2,0.5c-0.4,0.1-0.7-0.2-0.6-0.6l0.5-2c0.1-0.4,0.5-0.5,0.8-0.2L155.1,264.7z"/>
	</g>
	<polygon points="155.5,254 143.1,254 143.1,255.4 154.1,255.4 	"/>
	<polygon points="159.4,250.2 143.1,250.2 143.1,251.6 157.9,251.6 	"/>
	<polygon points="163.1,246.5 163.1,246.4 143.1,246.4 143.1,247.8 161.8,247.8 	"/>
</g>
<g>
	<g>
		<path d="M272.7,412.8C272.7,412.8,272.7,412.8,272.7,412.8c0.5,1.3,1.3,2.3,2.4,2.3c1,0,1.9-1.1,2.3-2.3c0,0,0,0,0.1,0
			c0.4,0,0.7-0.4,0.7-0.9c0-0.4-0.2-0.8-0.5-0.9c-0.1-1.6-1.2-2.4-2.5-2.4c-1.3,0-2.4,0.7-2.5,2.4c-0.3,0.1-0.5,0.5-0.5,0.9
			C272,412.4,272.3,412.8,272.7,412.8z"/>
		<path d="M282.2,412.8C282.2,412.8,282.2,412.8,282.2,412.8c0.5,1.3,1.3,2.3,2.4,2.3c1,0,1.9-1.1,2.3-2.3c0,0,0,0,0.1,0
			c0.4,0,0.7-0.4,0.7-0.9c0-0.4-0.2-0.8-0.5-0.9c-0.1-1.6-1.2-2.4-2.5-2.4c-1.3,0-2.4,0.7-2.5,2.4c-0.3,0.1-0.5,0.5-0.5,0.9
			C281.5,412.4,281.8,412.8,282.2,412.8z"/>
		<path d="M291.7,412.8C291.7,412.8,291.7,412.8,291.7,412.8c0.5,1.3,1.3,2.3,2.4,2.3c1,0,1.9-1.1,2.3-2.3c0,0,0,0,0.1,0
			c0.4,0,0.7-0.4,0.7-0.9c0-0.4-0.2-0.8-0.5-0.9c-0.1-1.6-1.2-2.4-2.5-2.4c-1.3,0-2.4,0.7-2.5,2.4c-0.3,0.1-0.5,0.5-0.5,0.9
			C291,412.4,291.3,412.8,291.7,412.8z"/>
		<path d="M301.1,412.8C301.2,412.8,301.2,412.8,301.1,412.8c0.5,1.3,1.3,2.3,2.4,2.3c1,0,1.9-1.1,2.3-2.3c0,0,0,0,0.1,0
			c0.4,0,0.7-0.4,0.7-0.9c0-0.4-0.2-0.8-0.5-0.9c-0.1-1.6-1.2-2.4-2.5-2.4c-1.3,0-2.4,0.7-2.5,2.4c-0.3,0.1-0.5,0.5-0.5,0.9
			C300.4,412.4,300.7,412.8,301.1,412.8z"/>
		<path d="M310.6,412.8C310.6,412.8,310.6,412.8,310.6,412.8c0.5,1.3,1.3,2.3,2.4,2.3c1,0,1.9-1.1,2.3-2.3c0,0,0,0,0.1,0
			c0.4,0,0.7-0.4,0.7-0.9c0-0.4-0.2-0.8-0.5-0.9c-0.1-1.6-1.2-2.4-2.5-2.4c-1.3,0-2.4,0.7-2.5,2.4c-0.3,0.1-0.5,0.5-0.5,0.9
			C309.9,412.4,310.2,412.8,310.6,412.8z"/>
		<path d="M318,419.8v-2.1c0-1.4-1.1-2.4-2.4-2.4h-1l-0.8,2.7l-0.6-1.4l0.7-0.8l-0.1-0.1c-0.3,0-0.5,0.1-0.8,0.1
			c-0.3,0-0.5,0-0.8-0.1l0,0l0.7,0.9l-0.6,1.4l-0.8-2.7h-1c-0.9,0-1.7,0.5-2.2,1.3c-0.4-0.8-1.2-1.3-2.2-1.3h-1l-0.8,2.7l-0.6-1.4
			l0.7-0.8l-0.1-0.1c-0.3,0-0.5,0.1-0.8,0.1c-0.3,0-0.5,0-0.8-0.1l0,0l0.7,0.9l-0.6,1.4l-0.8-2.7h-1c-0.9,0-1.7,0.5-2.2,1.3
			c-0.4-0.8-1.2-1.3-2.2-1.3h-1l-0.8,2.7l-0.6-1.4l0.7-0.8l-0.1-0.1c-0.3,0-0.5,0.1-0.8,0.1c-0.3,0-0.5,0-0.8-0.1l0,0l0.7,0.9
			l-0.6,1.4l-0.8-2.7h-1c-0.9,0-1.7,0.5-2.2,1.3c-0.4-0.8-1.2-1.3-2.2-1.3h-1l-0.8,2.7l-0.6-1.4l0.7-0.8l-0.1-0.1
			c-0.3,0-0.5,0.1-0.8,0.1c-0.3,0-0.5,0-0.8-0.1l0,0l0.7,0.9l-0.6,1.4l-0.8-2.7h-1c-0.9,0-1.7,0.5-2.2,1.3c-0.4-0.8-1.2-1.3-2.2-1.3
			h-1l-0.8,2.7l-0.6-1.4l0.7-0.8l-0.1-0.1c-0.3,0-0.5,0.1-0.8,0.1c-0.3,0-0.5,0-0.8-0.1l0,0l0.7,0.9l-0.6,1.4l-0.8-2.7h-1
			c-1.4,0-2.4,1.1-2.4,2.4v2c0,0.1,0,0.1,0,0.2v5.6c0,0.5,0.4,0.8,0.8,0.8h0.8v8.7h6.9v-8.7h0.8c0.2,0,0.4-0.1,0.5-0.2
			c0.1,0.1,0.3,0.2,0.5,0.2h0.8v8.7h6.9v-8.7h0.8c0.2,0,0.4-0.1,0.5-0.2c0.1,0.1,0.3,0.2,0.5,0.2h0.8v8.7h6.9v-8.7h0.8
			c0.2,0,0.4-0.1,0.5-0.2c0.1,0.1,0.3,0.2,0.5,0.2h0.8v8.7h6.9v-8.7h0.8c0.2,0,0.4-0.1,0.5-0.2c0.1,0.1,0.3,0.2,0.5,0.2h0.8v8.7h6.9
			v-8.7h0.8c0.4,0,0.8-0.4,0.8-0.8v-5.6C318,419.8,318,419.8,318,419.8z"/>
	</g>
	<g>
		<path d="M277.4,406.9C277.5,406.9,277.5,406.9,277.4,406.9c0.5,1.3,1.3,2.3,2.4,2.3c1,0,1.9-1.1,2.3-2.3c0,0,0,0,0.1,0
			c0.4,0,0.7-0.4,0.7-0.9c0-0.4-0.2-0.8-0.5-0.9c-0.1-1.6-1.2-2.4-2.5-2.4c-1.3,0-2.4,0.7-2.5,2.4c-0.3,0.1-0.5,0.5-0.5,0.9
			C276.7,406.5,277.1,406.9,277.4,406.9z"/>
		<path d="M286.9,406.9C286.9,406.9,287,406.9,286.9,406.9c0.5,1.3,1.3,2.3,2.4,2.3c1,0,1.9-1.1,2.3-2.3c0,0,0,0,0.1,0
			c0.4,0,0.7-0.4,0.7-0.9c0-0.4-0.2-0.8-0.5-0.9c-0.1-1.6-1.2-2.4-2.5-2.4c-1.3,0-2.4,0.7-2.5,2.4c-0.3,0.1-0.5,0.5-0.5,0.9
			C286.2,406.5,286.5,406.9,286.9,406.9z"/>
		<path d="M296.4,406.9C296.4,406.9,296.4,406.9,296.4,406.9c0.5,1.3,1.3,2.3,2.4,2.3c1,0,1.9-1.1,2.3-2.3c0,0,0,0,0.1,0
			c0.4,0,0.7-0.4,0.7-0.9c0-0.4-0.2-0.8-0.5-0.9c-0.1-1.6-1.2-2.4-2.5-2.4c-1.3,0-2.4,0.7-2.5,2.4c-0.3,0.1-0.5,0.5-0.5,0.9
			C295.7,406.5,296,406.9,296.4,406.9z"/>
		<path d="M305.9,406.9C305.9,406.9,305.9,406.9,305.9,406.9c0.5,1.3,1.3,2.3,2.4,2.3c1,0,1.9-1.1,2.3-2.3c0,0,0,0,0.1,0
			c0.4,0,0.7-0.4,0.7-0.9c0-0.4-0.2-0.8-0.5-0.9c-0.1-1.6-1.2-2.4-2.5-2.4c-1.3,0-2.4,0.7-2.5,2.4c-0.3,0.1-0.5,0.5-0.5,0.9
			C305.2,406.5,305.5,406.9,305.9,406.9z"/>
	</g>
	<g>
		<path d="M282.2,400.4C282.2,400.4,282.2,400.4,282.2,400.4c0.5,1.3,1.3,2.3,2.4,2.3c1,0,1.9-1.1,2.3-2.3c0,0,0,0,0.1,0
			c0.4,0,0.7-0.4,0.7-0.9c0-0.4-0.2-0.8-0.5-0.9c-0.1-1.6-1.2-2.4-2.5-2.4c-1.3,0-2.4,0.7-2.5,2.4c-0.3,0.1-0.5,0.5-0.5,0.9
			C281.5,400,281.8,400.4,282.2,400.4z"/>
		<path d="M291.6,400.4C291.7,400.4,291.7,400.4,291.6,400.4c0.5,1.3,1.3,2.3,2.4,2.3c1,0,1.9-1.1,2.3-2.3c0,0,0,0,0.1,0
			c0.4,0,0.7-0.4,0.7-0.9c0-0.4-0.2-0.8-0.5-0.9c-0.1-1.6-1.2-2.4-2.5-2.4c-1.3,0-2.4,0.7-2.5,2.4c-0.3,0.1-0.5,0.5-0.5,0.9
			C291,400,291.3,400.4,291.6,400.4z"/>
		<path d="M301.1,400.4C301.1,400.4,301.2,400.4,301.1,400.4c0.5,1.3,1.3,2.3,2.4,2.3s1.9-1.1,2.3-2.3c0,0,0,0,0.1,0
			c0.4,0,0.7-0.4,0.7-0.9c0-0.4-0.2-0.8-0.5-0.9c-0.1-1.6-1.2-2.4-2.5-2.4c-1.3,0-2.4,0.7-2.5,2.4c-0.3,0.1-0.5,0.5-0.5,0.9
			C300.4,400,300.7,400.4,301.1,400.4z"/>
	</g>
</g>
<g>
	<path d="M364.6,74.7c-0.5,0-1,0-1.5,0.1c0.7,1,1.2,2.1,1.5,3.3c0,0,0,0,0,0c3.1,0,6.5,4.3,8.1,10.8h-10.1c-0.6,1.1-1.2,2.3-1.9,3.4
		h12.6c0.2,1.6,0.4,3.3,0.4,5.1c0,2-0.2,3.9-0.5,5.7H356c-0.2-1-0.3-2-0.4-3.1c-0.2,0.3-0.4,0.5-0.5,0.6l-2.2,2.9l-0.5-0.6
		c0,0.1,0,0.1,0,0.2h-6.3c-0.6-1.8-0.9-3.7-0.9-5.7c0-1.4,0.2-2.7,0.4-4c-0.8-1.3-1.6-2.7-2.3-4.1c-1,2.5-1.5,5.2-1.5,8.1
		c0,12.5,10.1,22.6,22.6,22.6c9.3,0,17.2-5.6,20.7-13.5h0.2v-0.5c1.1-2.6,1.7-5.5,1.7-8.6C387.3,84.8,377.2,74.7,364.6,74.7z
		 M372.5,79.8c4.1,1.8,7.4,5.1,9.4,9.1h-5.7C375.5,85.3,374.2,82.2,372.5,79.8z M347.7,106.5h5.5c0.8,3.3,2,6.2,3.6,8.4
		C352.9,113.2,349.7,110.2,347.7,106.5z M364.6,116.6c-3,0-6.2-4-7.9-10.1h15.9C370.9,112.6,367.6,116.6,364.6,116.6z M372.5,114.9
		c1.5-2.2,2.8-5.1,3.6-8.4h5.5C379.6,110.2,376.4,113.2,372.5,114.9z M383,103.1h-6.3c0.3-1.8,0.4-3.8,0.4-5.7
		c0-1.7-0.1-3.4-0.3-5.1h6.4c0.4,1.6,0.7,3.3,0.7,5.1C383.9,99.4,383.6,101.3,383,103.1z"/>
	<path d="M353,72c-5.2,0-9.4,4.2-9.4,9.4c0,5.2,9.4,17.6,9.4,17.6s9.4-12.4,9.4-17.6C362.4,76.2,358.2,72,353,72z M353,85.5
		c-2.6,0-4.7-2.1-4.7-4.7c0-2.6,2.1-4.7,4.7-4.7c2.6,0,4.7,2.1,4.7,4.7C357.7,83.4,355.6,85.5,353,85.5z"/>
</g>
<g>
	<path d="M236.1,232h-23c-1.4,0-2.6,1.2-2.6,2.6v42.8c0,1.4,1.2,2.6,2.6,2.6h23c1.4,0,2.6-1.2,2.6-2.6v-42.8
		C238.7,233.2,237.5,232,236.1,232z M222.3,234.5h4.5c0.3,0,0.5,0.2,0.5,0.5c0,0.3-0.2,0.5-0.5,0.5h-4.5c-0.3,0-0.5-0.2-0.5-0.5
		C221.8,234.8,222,234.5,222.3,234.5z M224.6,278.1c-0.8,0-1.5-0.7-1.5-1.5c0-0.8,0.7-1.5,1.5-1.5c0.8,0,1.5,0.7,1.5,1.5
		C226.1,277.4,225.4,278.1,224.6,278.1z M235.8,272.2c0,0.7-0.6,1.3-1.3,1.3h-19.9c-0.7,0-1.3-0.6-1.3-1.3v-33.7
		c0-0.7,0.6-1.3,1.3-1.3h19.9c0.7,0,1.3,0.6,1.3,1.3V272.2z"/>
	<g>
		<path d="M220.9,271.1v-8.7c0-0.7-0.6-1.2-1.2-1.2h-3c-0.7,0-1.2,0.6-1.2,1.2v8.7H220.9z"/>
		<path d="M227.3,271.1v-11.2c0-0.7-0.6-1.2-1.2-1.2h-3c-0.7,0-1.2,0.6-1.2,1.2v11.2H227.3z"/>
		<path d="M233.8,271.1v-15.4c0-0.7-0.6-1.2-1.2-1.2h-3c-0.7,0-1.2,0.6-1.2,1.2v15.4H233.8z"/>
	</g>
</g>
<g>
	<path d="M312.6,184.1l-0.9-3.7c-0.6-2.6-3.2-4.1-5.8-3.5l-2.5,0.6v-1.8c0-1.4-1.1-2.5-2.5-2.5H280c-1.4,0-2.5,1.1-2.5,2.5v12.7
		l2,9.1c0,1.4,1.1,2.5,2.5,2.5h16.7c1.4,0,2.5-1.1,2.5-2.5l1.3-6l6.5-1.6C311.7,189.2,313.3,186.6,312.6,184.1z M308.4,186.9
		l-5.1,1.3v-7.6l3.3-0.8c0.9-0.2,1.9,0.3,2.1,1.3l0.9,3.7C309.9,185.7,309.3,186.7,308.4,186.9z"/>
	<g>
		<path d="M289.5,172c-0.1,0,0.5-1.1,0.3-2.9c-0.1-1.8-1-4.3-1.9-7.1c-1-2.8-1-5.3-0.3-7.1c0.6-1.8,2-2.9,1.9-2.9
			c0.1,0-0.5,1.1-0.3,2.9c0.1,1.8,1,4.3,1.9,7.1c1,2.8,1,5.3,0.3,7.1C290.8,170.9,289.5,172,289.5,172z"/>
		<path d="M285.2,154.7c0.1,0-0.4,0.8-0.2,2.1c0.1,1.3,0.7,3.1,1.4,5.1c0.7,2,0.7,3.8,0.2,5.1c-0.5,1.3-1.5,2.1-1.4,2.1
			c-0.1,0,0.4-0.8,0.2-2.1c-0.1-1.3-0.7-3.1-1.4-5.1c-0.7-2-0.7-3.8-0.2-5.1C284.3,155.6,285.3,154.7,285.2,154.7z"/>
		<path d="M293.9,154.7c0.1,0-0.4,0.8-0.2,2.1c0.1,1.3,0.7,3.1,1.4,5.1c0.7,2,0.7,3.8,0.2,5.1c-0.5,1.3-1.5,2.1-1.4,2.1
			c-0.1,0,0.4-0.8,0.2-2.1c-0.1-1.3-0.7-3.1-1.4-5.1c-0.7-2-0.7-3.8-0.2-5.1C292.9,155.6,293.9,154.7,293.9,154.7z"/>
	</g>
</g>
<g>
	<g>
		<g>
			<path d="M361.5,420.7c0.9,0.5,1.8,1.1,2.6,1.9c0.8,0.8,1.4,1.7,1.9,2.6c0,0,18.9-18.7,20.2-20c-1.2-3.3-4.5-4.5-4.5-4.5
				L361.5,420.7z"/>
			<path d="M361.2,427.2c0.3,0.3,0.2,0.7-0.2,0.8l-2,0.5c-0.5,0.1-0.7-0.2-0.6-0.6l0.6-2c0.1-0.5,0.5-0.5,0.8-0.2L361.2,427.2z"/>
		</g>
		<polygon points="361.6,416.3 348.9,416.3 348.9,417.8 360.1,417.8 		"/>
		<polygon points="365.6,412.4 348.9,412.4 348.9,413.9 364.1,413.9 		"/>
		<polygon points="369.4,408.6 369.4,408.5 348.9,408.5 348.9,410 368,410 		"/>
	</g>
	<path d="M373,422.6v14h-28.5v-31.9h5.6c2,0,3.7-1.7,3.7-3.7v-5.6H373v9.7l3.4-3.4v-7.4c0-1.3-1-2.3-2.3-2.3h-21.4L341,403.6v1l0,0
		h0v33c0,1.2,1,2.3,2.3,2.3h30.8c1.3,0,2.3-1,2.3-2.3v-18.5L373,422.6z"/>
</g>
<g>
	<polygon points="350.6,200 350.6,181.7 340.9,191.3 340,190.4 340,200 	"/>
	<polygon points="363.1,200 363.1,184.7 355.4,176.3 352.5,179.2 352.5,200 	"/>
	<polygon points="375.5,200 375.5,180.1 366.5,188.4 364.9,186.7 364.9,200 	"/>
	<polygon points="388,200 388,168.6 377.4,178.4 377.4,200 	"/>
	<path d="M387.8,158.1l-20.8,18.9l-9.7-10c-0.4-0.5-1-0.7-1.7-0.7c-0.6,0-1.2,0.3-1.7,0.7L340,181.2v4.9l0.9,0.9l14.6-14.9l9.6,9.9
		c0.9,0.9,2.3,0.9,3.2,0.1l19.6-17.8v-5.8L387.8,158.1z"/>
</g>
<g>
	<path d="M444.4,116.6h-25.2V84.7h5.6c2,0,3.7-1.7,3.7-3.7v-5.6h19.2v28.1l0.1-0.1l3.4,3.7V74.3c0-1.3-1-2.3-2.3-2.3h-21.4
		l-11.6,11.6v1l0,0h0v33c0,1.3,1,2.3,2.3,2.3h29.5L444.4,116.6z"/>
	<g>
		<path d="M455.1,115.5l-10.8-11.7c0,0-0.1-0.1-0.1-0.1c1.7-2.9,2.2-6.5,1.1-9.9c-2.1-6.6-9.1-10.2-15.6-8.2
			c-6.6,2.1-10.2,9.1-8.2,15.6c2.1,6.6,9.1,10.2,15.6,8.2c1-0.3,2-0.8,2.9-1.4l10.6,11.5c0.3,0.3,1,0.2,1.6-0.3l2.5-2.3
			C455.2,116.5,455.4,115.8,455.1,115.5z M424.7,100.2c-1.5-4.8,1.2-9.9,6-11.4c4.8-1.5,9.9,1.2,11.4,6c1.5,4.8-1.2,9.9-6,11.4
			C431.3,107.7,426.2,105,424.7,100.2z"/>
		<g>
			<path d="M429.1,93.8c4.9-1.5,10.1,1.2,11.6,6.1c0,0.1,0.1,0.3,0.1,0.4c0.6-1.6,0.7-3.4,0.2-5.1c-1.3-4.1-5.7-6.4-9.8-5.1
				c-2.6,0.8-4.5,2.9-5.2,5.4C426.9,94.8,427.9,94.2,429.1,93.8z"/>
		</g>
	</g>
</g>
<g>
	<path d="M172.7,103.3c0.6-0.4,0.9-1,0.9-1.8V80.2c0-1.2-1-2.2-2.2-2.2h-34.8c-1.2,0-2.2,1-2.2,2.2v21.3c0,0.7,0.4,1.4,0.9,1.8
		c-1.4,0.6-5.3,9.5-5.3,9.5c0,1.2,1,2.2,2.3,2.2h43.4c1.3,0,2.3-1,2.3-2.2C178,112.8,174.1,103.9,172.7,103.3z M137,80.7H171v20.4
		H137V80.7z M149.2,112.6l1.6-3.5h6.5l1.6,3.5H149.2z"/>
	<g>
		<path d="M156.3,99.7v-8.6c0-0.7-0.5-1.2-1.2-1.2h-2.9c-0.7,0-1.2,0.5-1.2,1.2v8.6H156.3z"/>
		<path d="M162.7,99.7v-11c0-0.7-0.5-1.2-1.2-1.2h-2.9c-0.7,0-1.2,0.5-1.2,1.2v11H162.7z"/>
		<path d="M169,99.7V84.5c0-0.7-0.5-1.2-1.2-1.2h-2.9c-0.7,0-1.2,0.5-1.2,1.2v15.2H169z"/>
	</g>
	<g>
		<path d="M147.5,86.3h-7.1c-0.4,0-0.7-0.3-0.7-0.7c0-0.4,0.3-0.7,0.7-0.7h7.1c0.4,0,0.7,0.3,0.7,0.7
			C148.2,86,147.9,86.3,147.5,86.3z"/>
	</g>
	<g>
		<path d="M147.5,88.9h-7.1c-0.4,0-0.7-0.3-0.7-0.7s0.3-0.7,0.7-0.7h7.1c0.4,0,0.7,0.3,0.7,0.7S147.9,88.9,147.5,88.9z"/>
	</g>
	<g>
		<path d="M144.2,91.4h-3.7c-0.4,0-0.7-0.3-0.7-0.7s0.3-0.7,0.7-0.7h3.7c0.4,0,0.7,0.3,0.7,0.7S144.5,91.4,144.2,91.4z"/>
	</g>
</g>
<g>
	<path d="M654.6,178.6h-4.2l-3.3,11l-2.6-5.8l2.7-3.4l-0.3-0.3c-1,0.2-2.1,0.2-3.2,0.2c-1.1,0-2.1-0.1-3.1-0.2l-0.1,0.1l2.9,3.7
		l-2.5,5.9l-3.3-11.2h-4.2c-5.5,0-10,4.5-10,10V200h41.1v-11.4C664.6,183.1,660.1,178.6,654.6,178.6z"/>
	<g>
		<path d="M654.4,161.6c-0.4-6.6-4.9-9.6-10.3-9.6c-5.5,0-9.9,3-10.3,9.6c-1.2,0.4-2.1,1.9-2.1,3.6c0,2.1,1.3,3.7,2.8,3.7
			c0.1,0,0.2,0,0.3,0c1.7,5.1,5.2,9.5,9.3,9.5c4.1,0,7.7-4.4,9.3-9.5c0.1,0,0.2,0,0.3,0c1.6,0,2.8-1.7,2.8-3.7
			C656.5,163.5,655.6,162.1,654.4,161.6z M650.6,162.9h-1c0,0.5-0.1,1-0.2,1.4l1,0.3c0.2,0.1,0.3,0.4,0.2,0.7
			c-0.3,0.8-0.7,1.5-1.2,2.1c-0.2,0.3-0.6,0.3-0.7,0.2l-0.7-0.7c-0.3,0.3-0.7,0.6-1.1,0.9l0.5,0.9c0.1,0.2,0,0.5-0.4,0.7
			c-0.7,0.3-1.5,0.5-2.3,0.6c-0.4,0-0.6-0.2-0.6-0.4v-1c-0.5,0-1-0.1-1.4-0.2l-0.3,1c-0.1,0.2-0.4,0.3-0.7,0.2
			c-0.8-0.3-1.5-0.7-2.1-1.2c-0.3-0.2-0.3-0.6-0.2-0.7l0.7-0.7c-0.3-0.3-0.6-0.7-0.9-1.1l-0.9,0.5c-0.2,0.1-0.5,0-0.7-0.4
			c-0.3-0.7-0.5-1.5-0.6-2.3c0-0.4,0.2-0.6,0.4-0.6h1c0-0.5,0.1-1,0.2-1.4l-1-0.3c-0.2-0.1-0.3-0.4-0.2-0.7c0.3-0.8,0.7-1.5,1.2-2.1
			c0.2-0.3,0.6-0.3,0.7-0.2l0.7,0.7c0.3-0.3,0.7-0.6,1.1-0.9l-0.5-0.9c-0.1-0.2,0-0.5,0.4-0.7c0.7-0.3,1.5-0.5,2.3-0.6
			c0.4,0,0.6,0.2,0.6,0.4v1c0.5,0,1,0.1,1.4,0.2l0.3-1c0.1-0.2,0.4-0.3,0.7-0.2c0.8,0.3,1.5,0.7,2.1,1.2c0.3,0.2,0.3,0.6,0.2,0.7
			L648,159c0.3,0.3,0.6,0.7,0.9,1.1l0.9-0.5c0.2-0.1,0.5,0,0.7,0.4c0.3,0.7,0.5,1.5,0.6,2.3C651.1,162.7,650.9,163,650.6,162.9z"/>
		<circle cx="644.1" cy="162.9" r="3"/>
	</g>
</g>
<g>
	<g>
		<path d="M273.8,244C273.8,244,273.8,244,273.8,244c0.7,1.8,1.9,3.2,3.3,3.2c1.4,0,2.6-1.5,3.2-3.3c0,0,0.1,0,0.1,0
			c0.5,0,1-0.6,1-1.3c0-0.6-0.3-1.1-0.7-1.2c-0.1-2.3-1.7-3.3-3.5-3.3c-1.9,0-3.4,1-3.5,3.3c-0.4,0.1-0.7,0.6-0.7,1.2
			C272.8,243.5,273.2,244,273.8,244z"/>
		<path d="M290.9,247.4h-10.1c0,0-0.1,0-0.1,0h-1.4l-1.1,3.8l-0.9-2l0.9-1.2l-0.1-0.1c-0.4,0.1-0.7,0.1-1.1,0.1
			c-0.4,0-0.7,0-1.1-0.1l0,0l1,1.3l-0.9,2l-1.1-3.8h-1.4c-1.9,0-3.4,1.5-3.4,3.4v2.8c0,0.1,0,0.2,0,0.2v7.8c0,0.6,0.5,1.1,1.1,1.1
			h1.1V275h9.7v-12.2h0v-12h8.9c0.8,0,1.4-0.6,1.4-1.4v-0.6C292.3,248,291.6,247.4,290.9,247.4z"/>
	</g>
	<g>
		<path d="M301,238v17.5h-17c0.3,9.1,7.8,16.5,17,16.5c9.4,0,17-7.6,17-17C318,245.6,310.4,238,301,238z"/>
		<path d="M298.9,238c-3.4,0.1-6.5,1.2-9.1,2.9l9.1,12.7V238z"/>
	</g>
</g>
<g>
	<g>
		<path d="M370.8,237.9v17.5h-17c0.3,9.1,7.8,16.5,17,16.5c9.4,0,17-7.6,17-17C387.8,245.5,380.2,237.9,370.8,237.9z"/>
		<path d="M368.7,237.9c-3.4,0.1-6.5,1.2-9.1,2.9l9.1,12.7V237.9z"/>
	</g>
	<path d="M358.6,247.4h-8.1v0c0,0,0.1-5.5-0.6-7.3c-0.6-1.9-2.5-2.3-3.3-2.4c-0.1,0-0.2,0-0.3,0.1c-0.1-0.1-0.2-0.1-0.3-0.1
		c-0.8,0.1-2.7,0.5-3.3,2.4c-0.6,1.8-0.5,5-0.3,7.3c-1.7,0.2-2.4,1.6-2.4,3.4v2.8c0,0.1,0,0.2,0,0.2v6.4c0,0.6,0.5,1.1,1.1,1.1h1.1
		V275h8.2l0-16.4c0.2-1.6,0.2-3,0.5-4.1c0.5-1.6,0.4-2.8,0.2-3.5c-0.1-0.3,0-0.5,0-0.6h7.3c0.8,0,1.4-0.5,1.4-1.2v-0.6
		C360,247.9,359.3,247.4,358.6,247.4z M347.8,251.5l-2.5,0l-0.7-3.6c0.1-0.4,0.3-0.9,0.2-1.5c0.5,0.5,1,0.9,1.5,0.9
		c0.4,0,1-0.3,1.5-0.8c-0.1,0.8,0.2,1.5,0.3,1.7L347.8,251.5z M346.2,246.7c-1.2,0-2.3-2.7-2.3-2.7s0.1-0.3,0.7-0.7
		c0.5-0.3,1.7-3,1.7-3c1.5,0.2,2.5,2.8,2.4,3.6C348.6,244.7,347.4,246.7,346.2,246.7z"/>
</g>
<g>
	<path d="M585.5,191.3c-1.3,1-2.6,1.8-4.1,2.5c0.5-0.7,0.9-1.5,1.4-2.3c-0.8,0.2-1.6,0.2-2.4,0.2c-0.6,0-1.1,0-1.7-0.1
		c-1.6,2.5-3.5,3.9-5.4,3.9c-3.1,0-6.4-4.1-8.2-10.4h3.9c-0.4-0.8-0.8-1.6-1.1-2.5c-0.1-0.3-0.2-0.6-0.2-0.9h-3.3
		c-0.3-1.8-0.5-3.8-0.5-5.9c0-1.8,0.1-3.6,0.4-5.2h5.9c1.2-1.5,2.6-2.6,4.3-3.5h-9.5c1.7-6.7,5.1-11.1,8.3-11.1c3,0,6.2,3.8,8,9.7
		c1.3,0.1,2.6,0.4,3.8,0.9c-0.8-3.5-2.1-6.5-3.7-8.9c4.2,1.9,7.6,5.2,9.7,9.4h-4.8c1.7,0.8,3.1,2,4.3,3.5h1.9
		c0.5,1.7,0.7,3.4,0.7,5.2c0,0.1,0,0.2,0,0.3c0.5,2.4,0.3,4.8-0.5,7.1l2,2.1c0,0,0-0.1,0.1-0.1h0.2v-0.6c1.1-2.7,1.7-5.7,1.7-8.8
		c0-12.8-10.4-23.3-23.3-23.3S550,162.9,550,175.7c0,12.8,10.4,23.3,23.3,23.3c5.5,0,10.6-1.9,14.6-5.1L585.5,191.3z M565.2,157.7
		c-1.7,2.5-3,5.7-3.8,9.4h-5.9C557.5,162.9,560.9,159.6,565.2,157.7z M553.5,175.7c0-1.8,0.2-3.5,0.7-5.2h6.6
		c-0.2,1.7-0.3,3.4-0.3,5.2c0,2,0.1,4,0.4,5.9h-6.5C553.8,179.8,553.5,177.8,553.5,175.7z M555.8,185.1h5.7c0.8,3.4,2.1,6.4,3.7,8.7
		C561.2,192,557.9,188.9,555.8,185.1z"/>
	<g>
		<path d="M597.9,193.2l-8.7-9.5c0,0-0.1,0-0.1-0.1c1.3-2.4,1.8-5.2,0.9-8c-1.7-5.3-7.3-8.3-12.7-6.6c-5.3,1.7-8.3,7.3-6.6,12.7
			c1.7,5.3,7.3,8.3,12.7,6.6c0.8-0.3,1.6-0.6,2.4-1.1l8.6,9.3c0.3,0.3,0.8,0.2,1.3-0.2l2-1.8C598,194.1,598.1,193.5,597.9,193.2z
			 M573.3,180.9c-1.2-3.9,0.9-8,4.8-9.3c3.9-1.2,8,1,9.3,4.8c1.2,3.9-1,8-4.8,9.3C578.6,186.9,574.5,184.8,573.3,180.9z"/>
		<g>
			<path d="M576.8,175.7c4-1.2,8.2,1,9.4,4.9c0,0.1,0.1,0.2,0.1,0.3c0.5-1.3,0.6-2.7,0.1-4.2c-1-3.3-4.6-5.2-7.9-4.1
				c-2.1,0.7-3.7,2.4-4.2,4.4C575,176.5,575.8,176,576.8,175.7z"/>
		</g>
	</g>
</g>
<g>
	<g>
		<path d="M500.2,326.7c-0.1-2.1-1.5-3-3.2-3c-1.7,0-3.1,1-3.2,3c-0.4,0.1-0.7,0.6-0.7,1.1c0,0.6,0.4,1.2,0.9,1.2c0,0,0.1,0,0.1,0
			c0.5,1.6,1.6,3,2.9,3c1.3,0,2.4-1.4,2.9-3c0,0,0.1,0,0.1,0c0.5,0,0.9-0.5,0.9-1.2C500.8,327.3,500.5,326.8,500.2,326.7z"/>
		<path d="M500.2,332h-1.3l-1,3.5l-0.8-1.8l0.8-1.1l-0.1-0.1c-0.3,0-0.7,0.1-1,0.1c-0.3,0-0.7,0-1-0.1l0,0l0.9,1.2l-0.8,1.8l-1-3.5
			h-1.3c-1.7,0-3.1,1.4-3.1,3.1v3.6h12.9v-3.6C503.4,333.4,502,332,500.2,332z"/>
	</g>
	<g>
		<path d="M514.4,326.7c-0.1-2.1-1.5-3-3.2-3c-1.7,0-3.1,1-3.2,3c-0.4,0.1-0.7,0.6-0.7,1.1c0,0.6,0.4,1.2,0.9,1.2c0,0,0.1,0,0.1,0
			c0.5,1.6,1.6,3,2.9,3c1.3,0,2.4-1.4,2.9-3c0,0,0.1,0,0.1,0c0.5,0,0.9-0.5,0.9-1.2C515.1,327.3,514.8,326.8,514.4,326.7z"/>
		<path d="M514.5,332h-1.3l-1,3.5l-0.8-1.8l0.8-1.1l-0.1-0.1c-0.3,0-0.7,0.1-1,0.1c-0.3,0-0.7,0-1-0.1l0,0l0.9,1.2l-0.8,1.8l-1-3.5
			h-1.3c-1.7,0-3.1,1.4-3.1,3.1v3.6h12.9v-3.6C517.6,333.4,516.2,332,514.5,332z"/>
	</g>
	<polygon points="521.8,349 486.2,349 490.2,340.2 517.8,340.2 	"/>
	<g>
		<path d="M484.7,349l2.7-5.9c0-0.5-1.2-2.9-3.3-2.9c-2,0-3.7,1.2-3.7,1.7v7.2H484.7z"/>
		<path d="M486.6,333.9c0.4,2-0.6,5-2.4,5.3c-1.8,0.4-3.8-2-4.2-4.1c-0.4-2,0.8-3.9,2.6-4.3C484.5,330.5,486.3,331.9,486.6,333.9z"
			/>
	</g>
	<g>
		<path d="M523.3,349l-2.7-5.9c0-0.5,1.2-2.9,3.3-2.9c2,0,3.7,1.2,3.7,1.7v7.2H523.3z"/>
		<path d="M521.4,333.9c-0.4,2,0.6,5,2.4,5.3c1.8,0.4,3.8-2,4.2-4.1c0.4-2-0.8-3.9-2.6-4.3C523.5,330.5,521.7,331.9,521.4,333.9z"/>
	</g>
</g>
<g>
	<polygon points="591.8,350 556.2,350 560.2,341.2 587.8,341.2 	"/>
	<g>
		<path d="M554.7,350l2.7-5.9c0-0.5-1.2-2.9-3.3-2.9c-2,0-3.7,1.2-3.7,1.7v7.2H554.7z"/>
		<path d="M556.6,334.9c0.4,2-0.6,5-2.4,5.3c-1.8,0.4-3.8-2-4.2-4.1c-0.4-2,0.8-3.9,2.6-4.3C554.5,331.5,556.3,332.9,556.6,334.9z"
			/>
	</g>
	<g>
		<path d="M593.3,350l-2.7-5.9c0-0.5,1.2-2.9,3.3-2.9c2,0,3.7,1.2,3.7,1.7v7.2H593.3z"/>
		<path d="M591.4,334.9c-0.4,2,0.6,5,2.4,5.3c1.8,0.4,3.8-2,4.2-4.1c0.4-2-0.8-3.9-2.6-4.3C593.5,331.5,591.7,332.9,591.4,334.9z"/>
	</g>
	<path d="M586.8,339.8v-1.1c0,0,0-0.1,0-0.1v-2.6c0-1.6-0.7-2.9-2.2-3c0.2-2,0.3-4.8-0.3-6.5c-0.6-1.7-2.3-2-3-2.1
		c-0.1,0-0.2,0-0.2,0.1c-0.1,0-0.1-0.1-0.2-0.1c-0.7,0.1-2.4,0.5-3,2.1c-0.6,1.6-0.5,4.4-0.3,6.5c-1.5,0.1-2.1,1.4-2.1,3v2.5
		c0,0.1,0,0.1,0,0.2v1.1H586.8z M582.5,336.6l-2.2,0l-0.6-3.2c0.1-0.3,0.2-0.8,0.1-1.3c0.4,0.5,0.9,0.8,1.4,0.8
		c0.4,0,0.9-0.3,1.3-0.7c-0.1,0.7,0.2,1.3,0.3,1.6L582.5,336.6z M579.6,329.3c0.5-0.3,1.5-2.7,1.5-2.7c1.4,0.2,2.2,2.5,2.2,3.2
		c0,0.7-1.1,2.5-2.2,2.5s-2.1-2.4-2.1-2.4S579.2,329.6,579.6,329.3z"/>
	<path d="M572.9,339.8v-1.1c0,0,0-0.1,0-0.1v-2.6c0-1.6-0.7-2.9-2.2-3c0.2-2,0.3-4.8-0.3-6.5c-0.6-1.7-2.3-2-3-2.1
		c-0.1,0-0.2,0-0.2,0.1c-0.1,0-0.1-0.1-0.2-0.1c-0.7,0.1-2.4,0.5-3,2.1c-0.6,1.6-0.5,4.4-0.3,6.5c-1.5,0.1-2.1,1.4-2.1,3v2.5
		c0,0.1,0,0.1,0,0.2v1.1H572.9z M568.5,336.6l-2.2,0l-0.6-3.2c0.1-0.3,0.2-0.8,0.1-1.3c0.4,0.5,0.9,0.8,1.4,0.8
		c0.4,0,0.9-0.3,1.3-0.7c-0.1,0.7,0.2,1.3,0.3,1.6L568.5,336.6z M565.7,329.3c0.5-0.3,1.5-2.7,1.5-2.7c1.4,0.2,2.2,2.5,2.2,3.2
		s-1.1,2.5-2.2,2.5s-2.1-2.4-2.1-2.4S565.2,329.6,565.7,329.3z"/>
</g>
<g>
	<path d="M434,168.8c-4,0-7.2,3.2-7.2,7.2s3.2,7.2,7.2,7.2c4,0,7.2-3.2,7.2-7.2S438,168.8,434,168.8z M434,181.2
		c-2.9,0-5.2-2.3-5.2-5.2s2.3-5.2,5.2-5.2c2.9,0,5.2,2.3,5.2,5.2S436.9,181.2,434,181.2z"/>
	<path d="M458,174.4h-6.3c-0.8-8.6-7.6-15.4-16.2-16.2V152h-3.2v6.3c-8.6,0.8-15.4,7.6-16.2,16.2H410v3.2h6.3
		c0.8,8.6,7.6,15.4,16.2,16.2v6.3h3.2v-6.3c8.6-0.8,15.4-7.6,16.2-16.2h6.3V174.4z M435.6,189.7V187c0-0.8-0.6-1.4-1.4-1.4h-0.4
		c-0.8,0-1.4,0.6-1.4,1.4v2.7c-6.4-0.7-11.4-5.8-12.1-12.1h2.7c0.8,0,1.4-0.6,1.4-1.4v-0.4c0-0.8-0.6-1.4-1.4-1.4h-2.7
		c0.7-6.4,5.8-11.4,12.1-12.1v2.7c0,0.8,0.6,1.4,1.4,1.4h0.4c0.8,0,1.4-0.6,1.4-1.4v-2.7c6.4,0.7,11.4,5.8,12.1,12.1H445
		c-0.8,0-1.4,0.6-1.4,1.4v0.4c0,0.8,0.6,1.4,1.4,1.4h2.7C447,183.9,441.9,189,435.6,189.7z"/>
</g>
<g>
	<path d="M446.3,256l2.6-23.6l-23.7-0.5l5.6,6.3L422,246c-0.6,0.6-0.7,1.5-0.1,2.1l8,9.1c0.6,0.6,1.5,0.7,2.1,0.1l8.7-7.7L446.3,256
		z"/>
	<path d="M424.8,256l-2.6,23.6L446,280l-5.6-6.3l8.7-7.7c0.6-0.6,0.7-1.5,0.1-2.1l-8-9.1c-0.6-0.6-1.5-0.7-2.1-0.1l-8.7,7.7
		L424.8,256z"/>
</g>
<path d="M505.6,195.6l-0.4-3c-2.3-0.4-4.3-2.1-5.1-4.5c-1.1-3.5,0.8-7.3,4.3-8.4c3.5-1.1,7.3,0.8,8.4,4.3c0.8,2.5,0.1,5.1-1.6,6.8
	l1.3,1.9c3.3-1.5,5.5-2.7,5.5-2.7c1-0.3,1.6-1.5,1.3-2.5c0,0-1.8-4-3.8-8.9l1.2-0.8c1.7,1.7,4.3,2.4,6.8,1.6
	c3.5-1.1,5.4-4.9,4.3-8.4c-1.1-3.5-4.9-5.4-8.4-4.3c-2.4,0.8-4,2.8-4.5,5.1l-1.7,0.2c-1.2-3.7-2.1-7.3-2.2-9.8
	c-0.8-0.9-1.5-1.6-2.5-1.3c0,0-4.6,2.2-10.2,4.4l-0.7-1c1.7-1.7,2.4-4.3,1.6-6.8c-1.1-3.5-4.9-5.4-8.4-4.3c-3.5,1.1-5.4,4.9-4.3,8.4
	c0.8,2.4,2.8,4,5.1,4.5l0.2,1.6c-4.4,1.5-8.6,2.6-10.6,2.1c-0.9,0.7-1.4,1.5-1.3,2.5c-0.2,2.3,0.9,6.3,2.3,10.5l2.3-0.3
	c0.4-2.3,2.1-4.3,4.5-5.1c3.5-1.1,7.3,0.8,8.4,4.3c1.1,3.5-0.8,7.3-4.3,8.4c-2.5,0.8-5.1,0.1-6.8-1.6l-1.6,1.1
	c1.8,4.6,3.5,8.1,3.5,8.1c0.3,1,0.3,0.9,2.5,1.3C494.1,199.6,500.1,197.8,505.6,195.6z"/>
<path d="M310.9,120v-3.5c0-0.1,0-0.3,0-0.4V108c0-5-2-9-6.7-9.4c0.5-6.3,0.8-15-0.9-20c-1.8-5.1-7-6.3-9.2-6.5c-0.3,0-0.5,0-0.7,0.2
	c-0.2-0.1-0.5-0.2-0.7-0.2c-2.2,0.3-7.4,1.4-9.2,6.5c-1.7,5-1.4,13.8-0.9,20c-4.6,0.5-6.6,4.5-6.6,9.4v7.9c0,0.2-0.1,0.4-0.1,0.6
	v3.5H310.9z M297.4,110.1l-6.9,0l-1.8-10c0.4-1,0.7-2.5,0.4-4.1c1.4,1.5,2.9,2.4,4.3,2.4c1.2,0,2.7-0.8,4.2-2.1
	c-0.3,2.3,0.6,4.1,0.9,4.8L297.4,110.1z M288.6,87.6c1.4-0.9,4.6-8.3,4.6-8.3c4.2,0.7,6.8,7.8,6.7,10s-3.4,7.7-6.7,7.7
	c-3.3,0-6.4-7.5-6.4-7.5S287.2,88.5,288.6,87.6z"/>
<path fill-rule="evenodd" clip-rule="evenodd" d="M511.4,401.8h-12.9v1.8h12.9V401.8z M489.2,409.2c-1,0-1.8,0.8-1.8,1.8
	s0.8,1.8,1.8,1.8s1.8-0.8,1.8-1.8S490.2,409.2,489.2,409.2z M526.9,417.1c0.1,0.1,0.3,0.2,0.4,0.3c0.3,0.2,0.6,0.3,0.6,0.3l-0.2,3
	c-0.9-0.1-1.6-0.4-2.2-0.8c-0.3-0.2-0.6-0.5-0.9-0.7c-0.5,3.9-2.4,8.2-5.9,10.2v5.5h-9.2v-3.7c-0.7,0.1-7.3,0.1-9.2,0v3.7h-9.2v-5.5
	c-2.6-1.1-5.4-3.3-6.5-5.7h-1.3c-1.8,0-3.3-1.4-3.3-3.2v-5.7c0-1.8,1.5-3.2,3.3-3.2h0.8c0.3-1.3,0.8-2.5,1.4-3.6l1.2-7.2
	c0.3-1.8,1.8-2.5,3.3-1.6l2.8,1.6c3.3-1.7,7.4-2.7,12.4-2.7c11.6,0,17.5,5.3,19.2,13.5c0.2,0,0.3-0.1,0.5-0.1c0.9,0,1.5,0.4,1.9,0.9
	c0.4,0.5,0.7,1,0.9,1.7c0.1,0.4,0.1,0.7,0.1,1.1s-0.1,0.8-0.2,1.1C527.4,416.6,527.2,416.9,526.9,417.1z"/>
<g>
	<g>
		<path d="M133.9,323C133.9,323,134,323,133.9,323c0.7,1.8,1.9,3.3,3.4,3.3c1.5,0,2.7-1.5,3.3-3.4c0,0,0.1,0,0.1,0
			c0.6,0,1-0.6,1-1.3c0-0.6-0.3-1.1-0.7-1.3c-0.1-2.3-1.7-3.4-3.7-3.4c-1.9,0-3.5,1.1-3.7,3.4c-0.4,0.2-0.7,0.7-0.7,1.3
			C132.9,322.5,133.3,323,133.9,323z"/>
		<path d="M151.5,326.5h-10.4c0,0-0.1,0-0.1,0h-1.5l-1.2,3.9l-0.9-2l0.9-1.2l-0.1-0.1c-0.4,0.1-0.7,0.1-1.1,0.1
			c-0.4,0-0.8,0-1.1-0.1l0,0l1,1.3l-0.9,2.1l-1.2-4h-1.5c-2,0-3.5,1.6-3.5,3.5v2.9c0,0.1,0,0.2,0,0.2v8.1c0,0.7,0.5,1.2,1.2,1.2h1.1
			V355h10v-12.6h0V330h9.2c0.8,0,1.4-0.6,1.4-1.4v-0.7C153,327.1,152.3,326.5,151.5,326.5z"/>
	</g>
	<path d="M155,323.1c0,0.8-0.7,1.5-1.5,1.5l0,0c-0.8,0-1.5-0.7-1.5-1.5v-4.1c0-0.8,0.7-1.5,1.5-1.5l0,0c0.8,0,1.5,0.7,1.5,1.5V323.1
		z"/>
	<path d="M171.5,323.1c0,0.8-0.7,1.5-1.5,1.5l0,0c-0.8,0-1.5-0.7-1.5-1.5v-4.1c0-0.8,0.7-1.5,1.5-1.5l0,0c0.8,0,1.5,0.7,1.5,1.5
		V323.1z"/>
	<polygon points="148.3,323.5 150.9,323.5 150.9,320.9 145.7,320.9 145.7,324.8 148.3,324.8 	"/>
	<g>
		<polygon points="172.7,320.9 172.7,323.5 175.4,323.5 175.4,343.5 148.3,343.5 148.3,331.4 145.7,331.4 145.7,346.1 178,346.1 
			178,320.9 		"/>
		<rect x="156.1" y="320.9" width="11.3" height="2.6"/>
	</g>
	<g>
		<path d="M155.3,337.6v-1.4l1.2-1c1.7-1.5,2.6-2.3,2.6-3.2c0-0.6-0.4-1-1.2-1c-0.7,0-1.3,0.3-1.8,0.7l-0.6-1.7
			c0.6-0.5,1.7-0.9,2.9-0.9c1.9,0,3.1,1.1,3.1,2.7c0,1.3-1,2.4-1.9,3.2l-0.8,0.6v0h2.9v1.9H155.3z"/>
		<path d="M165.1,331.3L165.1,331.3l-1.7,0.7l-0.4-1.7l2.4-1.1h1.9v8.4h-2.2V331.3z"/>
	</g>
</g>
<g>
	<path d="M224.1,323.6c0,0.8-0.7,1.5-1.5,1.5l0,0c-0.8,0-1.5-0.7-1.5-1.5v-4.1c0-0.8,0.7-1.5,1.5-1.5l0,0c0.8,0,1.5,0.7,1.5,1.5
		V323.6z"/>
	<path d="M240.6,323.6c0,0.8-0.7,1.5-1.5,1.5l0,0c-0.8,0-1.5-0.7-1.5-1.5v-4.1c0-0.8,0.7-1.5,1.5-1.5l0,0c0.8,0,1.5,0.7,1.5,1.5
		V323.6z"/>
	<polygon points="217.4,324 220,324 220,321.4 214.8,321.4 214.8,325.4 217.4,325.4 	"/>
	<g>
		<polygon points="241.8,321.4 241.8,324 244.4,324 244.4,344 217.4,344 217.4,332 214.8,332 214.8,346.7 247.1,346.7 247.1,321.4 
					"/>
		<rect x="225.2" y="321.4" width="11.3" height="2.6"/>
	</g>
	<g>
		<path d="M224.3,338.2v-1.4l1.2-1c1.7-1.5,2.6-2.3,2.6-3.2c0-0.6-0.4-1-1.2-1c-0.7,0-1.3,0.3-1.8,0.7l-0.6-1.7
			c0.6-0.5,1.7-0.9,2.9-0.9c1.9,0,3.1,1.1,3.1,2.7c0,1.3-1,2.4-1.9,3.2l-0.8,0.6v0h2.9v1.9H224.3z"/>
		<path d="M234.2,331.9L234.2,331.9l-1.7,0.7l-0.4-1.7l2.4-1.1h1.9v8.4h-2.2V331.9z"/>
	</g>
	<path d="M219.6,327.4h-8.1v0c0,0,0.1-5.5-0.6-7.3c-0.6-1.9-2.5-2.3-3.3-2.4c-0.1,0-0.2,0-0.3,0.1c-0.1-0.1-0.2-0.1-0.3-0.1
		c-0.8,0.1-2.7,0.5-3.3,2.4c-0.6,1.8-0.5,5-0.3,7.3c-1.7,0.2-2.4,1.6-2.4,3.4v2.8c0,0.1,0,0.2,0,0.2v6.4c0,0.6,0.5,1.1,1.1,1.1h1.1
		V355h8.2l0-16.4c0.2-1.6,0.2-3,0.5-4.1c0.5-1.6,0.4-2.8,0.2-3.5c-0.1-0.3,0-0.5,0-0.6h7.3c0.8,0,1.4-0.5,1.4-1.2v-0.6
		C221,327.9,220.3,327.4,219.6,327.4z M208.8,331.5l-2.5,0l-0.7-3.6c0.1-0.4,0.3-0.9,0.2-1.5c0.5,0.5,1,0.9,1.5,0.9
		c0.4,0,1-0.3,1.5-0.8c-0.1,0.8,0.2,1.5,0.3,1.7L208.8,331.5z M207.2,326.7c-1.2,0-2.3-2.7-2.3-2.7s0.1-0.3,0.7-0.7s1.7-3,1.7-3
		c1.5,0.2,2.5,2.8,2.4,3.6C209.6,324.7,208.4,326.7,207.2,326.7z"/>
</g>
<g>
	<g>
		<path d="M554.1,400.9c0,0,0.1,0,0.1,0c0.6,1.9,2,3.5,3.5,3.5c1.5,0,2.9-1.6,3.5-3.5c0,0,0.1,0,0.1,0c0.6,0,1.1-0.6,1.1-1.4
			c0-0.6-0.3-1.2-0.8-1.3c-0.2-2.5-1.8-3.6-3.9-3.6c-2,0-3.7,1.1-3.9,3.6c-0.4,0.2-0.8,0.7-0.8,1.3
			C553.1,400.3,553.5,400.9,554.1,400.9z"/>
		<path d="M565.4,411.4v-3.2c0-2.1-1.7-3.7-3.7-3.7h-1.6l-1.2,4.1l-1-2.2l1-1.3l-0.1-0.1c-0.4,0.1-0.8,0.1-1.2,0.1
			c-0.4,0-0.8,0-1.2-0.1l0,0l1.1,1.4l-0.9,2.2l-1.2-4.2h-1.6c-2.1,0-3.7,1.7-3.7,3.7v3.1c0,0.1,0,0.2,0,0.3v8.5
			c0,0.7,0.6,1.3,1.2,1.3h1.2v13.3H563v-13.3h1.2c0.7,0,1.2-0.6,1.2-1.3v-8.5C565.4,411.6,565.4,411.5,565.4,411.4z"/>
	</g>
	<path d="M579,433.3c0,0.9-0.8,1.7-1.7,1.7h-8c-0.9,0-1.7-0.8-1.7-1.7v-14.9c0-0.9,0.8-1.7,1.7-1.7h8c0.9,0,1.7,0.8,1.7,1.7V433.3z"
		/>
	<path d="M597.5,406.9l-7.7-9.4c-1-1.3-2.7-1.3-3.8,0l-7.7,9.4c-1,1.3-0.5,2.3,1.1,2.3h2.8v24.1c0,0.9,0.8,1.7,1.7,1.7h8
		c0.9,0,1.7-0.8,1.7-1.7v-24.1h2.8C598,409.2,598.5,408.2,597.5,406.9z"/>
</g>
<g>
	<path d="M649.2,433.3c0,0.9-0.8,1.7-1.7,1.7h-8c-0.9,0-1.7-0.8-1.7-1.7v-14.9c0-0.9,0.8-1.7,1.7-1.7h8c0.9,0,1.7,0.8,1.7,1.7V433.3
		z"/>
	<path d="M667.6,406.9l-7.7-9.4c-1-1.3-2.7-1.3-3.8,0l-7.7,9.4c-1,1.3-0.5,2.3,1.1,2.3h2.8v24.1c0,0.9,0.8,1.7,1.7,1.7h8
		c0.9,0,1.7-0.8,1.7-1.7v-24.1h2.8C668.2,409.2,668.7,408.1,667.6,406.9z"/>
	<path d="M634.1,411.9v-3.2c0-1.9-0.8-3.5-2.6-3.7c0.2-2.5,0.3-5.9-0.4-7.9c-0.7-2-2.8-2.5-3.6-2.6c-0.1,0-0.2,0-0.3,0.1
		c-0.1-0.1-0.2-0.1-0.3-0.1c-0.8,0.1-2.9,0.6-3.6,2.6c-0.7,2-0.6,5.4-0.4,7.9c-1.8,0.2-2.6,1.8-2.6,3.7v3.1c0,0.1,0,0.2,0,0.3v6.9
		c0,0.7,0.6,1.2,1.2,1.2h1.2V435h8.9v-14.8h1.2c0.7,0,1.2-0.6,1.2-1.2v-6.9C634.2,412,634.2,412,634.1,411.9z M628.9,409.6l-2.7,0
		l-0.7-3.9c0.1-0.4,0.3-1,0.2-1.6c0.5,0.6,1.1,0.9,1.7,0.9c0.5,0,1.1-0.3,1.6-0.8c-0.1,0.9,0.2,1.6,0.4,1.9L628.9,409.6z
		 M627.2,404.4c-1.3,0-2.5-3-2.5-3s0.1-0.4,0.7-0.7c0.6-0.4,1.8-3.3,1.8-3.3c1.7,0.3,2.7,3.1,2.6,3.9
		C629.8,402.2,628.5,404.4,627.2,404.4z"/>
</g>
</svg>
